<svg width="24" height="25" viewBox="0 0 24 25" fill="none" xmlns="http://www.w3.org/2000/svg">
<path d="M12 2.49799C17.524 2.49799 22.002 6.97599 22.002 12.5C22.002 18.023 17.524 22.5 12 22.5C6.476 22.5 2 18.023 2 12.5C1.999 6.97599 6.476 2.49799 12 2.49799ZM11.996 10.748C11.7509 10.7483 11.5145 10.8386 11.3316 11.0018C11.1488 11.1649 11.0322 11.3895 11.004 11.633L10.997 11.749L11.001 17.251L11.007 17.367C11.0349 17.6109 11.1516 17.836 11.3349 17.9994C11.5181 18.1628 11.755 18.2532 12.0005 18.2532C12.246 18.2532 12.4829 18.1628 12.6661 17.9994C12.8494 17.836 12.9661 17.6109 12.994 17.367L13 17.25L12.996 11.748L12.989 11.631C12.9601 11.3877 12.8429 11.1636 12.6597 11.001C12.4765 10.8384 12.24 10.7487 11.995 10.749M12 6.99999C11.6681 6.99999 11.3498 7.13184 11.1151 7.36654C10.8804 7.60124 10.7485 7.91957 10.7485 8.25149C10.7485 8.5834 10.8804 8.90173 11.1151 9.13643C11.3498 9.37113 11.6681 9.50299 12 9.50299C12.3319 9.50299 12.6502 9.37113 12.8849 9.13643C13.1196 8.90173 13.2515 8.5834 13.2515 8.25149C13.2515 7.91957 13.1196 7.60124 12.8849 7.36654C12.6502 7.13184 12.3319 6.99999 12 6.99999Z" fill="#2D52E4"/>
</svg>
